<svg width="604" height="164" viewBox="0 0 604 164" fill="none" xmlns="http://www.w3.org/2000/svg">
<g filter="url(#filter0_dd_1_70)">
<path d="M29.744 4.75999V57.112C29.744 61.976 30.8533 65.7307 33.072 68.376C35.376 71.0213 38.832 72.344 43.44 72.344C48.048 72.344 51.504 71.0213 53.808 68.376C56.1973 65.6453 57.392 61.8907 57.392 57.112V4.75999H82.48V57.112C82.48 65.3893 80.7307 72.472 77.232 78.36C73.7333 84.1627 68.9547 88.5573 62.896 91.544C56.9227 94.4453 50.2667 95.896 42.928 95.896C35.5893 95.896 29.0187 94.4453 23.216 91.544C17.4987 88.5573 12.976 84.1627 9.648 78.36C6.40533 72.5573 4.784 65.4747 4.784 57.112V4.75999H29.744ZM121.381 33.176C123.344 29.7627 126.117 27.1173 129.701 25.24C133.285 23.2773 137.509 22.296 142.373 22.296C148.09 22.296 153.253 23.7893 157.861 26.776C162.554 29.7627 166.224 34.0293 168.869 39.576C171.6 45.1227 172.965 51.608 172.965 59.032C172.965 66.456 171.6 72.984 168.869 78.616C166.224 84.1627 162.554 88.4293 157.861 91.416C153.253 94.4027 148.09 95.896 142.373 95.896C137.509 95.896 133.285 94.9573 129.701 93.08C126.117 91.1173 123.344 88.4293 121.381 85.016V95H96.293V0.279999H121.381V33.176ZM147.493 59.032C147.493 54.3387 146.213 50.712 143.653 48.152C141.178 45.5067 138.106 44.184 134.437 44.184C130.768 44.184 127.653 45.5067 125.093 48.152C122.618 50.7973 121.381 54.424 121.381 59.032C121.381 63.7253 122.618 67.3947 125.093 70.04C127.653 72.6853 130.768 74.008 134.437 74.008C138.106 74.008 141.178 72.6853 143.653 70.04C146.213 67.3093 147.493 63.64 147.493 59.032ZM251.901 58.264C251.901 60.2267 251.773 62.1893 251.517 64.152H204.029C204.285 68.0773 205.352 71.0213 207.229 72.984C209.192 74.8613 211.666 75.8 214.653 75.8C218.834 75.8 221.821 73.9227 223.613 70.168H250.365C249.256 75.1173 247.08 79.5547 243.837 83.48C240.68 87.32 236.669 90.3493 231.805 92.568C226.941 94.7867 221.565 95.896 215.677 95.896C208.594 95.896 202.28 94.4027 196.733 91.416C191.272 88.4293 186.962 84.1627 183.805 78.616C180.733 73.0693 179.197 66.5413 179.197 59.032C179.197 51.5227 180.733 45.0373 183.805 39.576C186.877 34.0293 191.144 29.7627 196.605 26.776C202.152 23.7893 208.509 22.296 215.677 22.296C222.76 22.296 229.032 23.7467 234.493 26.648C239.954 29.5493 244.221 33.7307 247.293 39.192C250.365 44.568 251.901 50.9253 251.901 58.264ZM226.301 51.992C226.301 48.92 225.277 46.5307 223.229 44.824C221.181 43.032 218.621 42.136 215.549 42.136C212.477 42.136 209.96 42.9893 207.997 44.696C206.034 46.3173 204.754 48.7493 204.157 51.992H226.301ZM287.256 35.864C290.072 31.768 293.485 28.5253 297.496 26.136C301.507 23.7467 305.816 22.552 310.424 22.552V49.304H303.384C297.923 49.304 293.869 50.3707 291.224 52.504C288.579 54.6373 287.256 58.3493 287.256 63.64V95H262.168V23.192H287.256V35.864ZM344.506 75.8H372.538V95H319.418V4.75999H344.506V75.8ZM407.381 24.856V39.576H436.181V58.648H407.381V74.904H440.021V95H382.293V4.75999H440.021V24.856H407.381ZM486.466 95.896C475.97 95.896 467.351 93.4213 460.61 88.472C453.869 83.4373 450.242 76.2693 449.73 66.968H476.482C476.738 70.1253 477.677 72.4293 479.298 73.88C480.919 75.3307 483.01 76.056 485.57 76.056C487.874 76.056 489.751 75.5013 491.202 74.392C492.738 73.1973 493.506 71.576 493.506 69.528C493.506 66.8827 492.269 64.8347 489.794 63.384C487.319 61.9333 483.309 60.312 477.762 58.52C471.874 56.5573 467.095 54.68 463.426 52.888C459.842 51.0107 456.685 48.3227 453.954 44.824C451.309 41.24 449.986 36.5893 449.986 30.872C449.986 25.0693 451.437 20.12 454.338 16.024C457.239 11.8427 461.25 8.68533 466.37 6.55199C471.49 4.41866 477.293 3.352 483.778 3.352C494.274 3.352 502.637 5.82666 508.866 10.776C515.181 15.64 518.551 22.5093 518.978 31.384H491.714C491.629 28.6533 490.775 26.6053 489.154 25.24C487.618 23.8747 485.613 23.192 483.138 23.192C481.261 23.192 479.725 23.7467 478.53 24.856C477.335 25.9653 476.738 27.544 476.738 29.592C476.738 31.2987 477.378 32.792 478.658 34.072C480.023 35.2667 481.687 36.3333 483.65 37.272C485.613 38.1253 488.514 39.2347 492.354 40.6C498.071 42.5627 502.765 44.5253 506.434 46.488C510.189 48.3653 513.389 51.0533 516.034 54.552C518.765 57.9653 520.13 62.3173 520.13 67.608C520.13 72.984 518.765 77.8053 516.034 82.072C513.389 86.3387 509.506 89.7093 504.386 92.184C499.351 94.6587 493.378 95.896 486.466 95.896ZM565.841 95.896C555.345 95.896 546.726 93.4213 539.985 88.472C533.244 83.4373 529.617 76.2693 529.105 66.968H555.857C556.113 70.1253 557.052 72.4293 558.673 73.88C560.294 75.3307 562.385 76.056 564.945 76.056C567.249 76.056 569.126 75.5013 570.577 74.392C572.113 73.1973 572.881 71.576 572.881 69.528C572.881 66.8827 571.644 64.8347 569.169 63.384C566.694 61.9333 562.684 60.312 557.137 58.52C551.249 56.5573 546.47 54.68 542.801 52.888C539.217 51.0107 536.06 48.3227 533.329 44.824C530.684 41.24 529.361 36.5893 529.361 30.872C529.361 25.0693 530.812 20.12 533.713 16.024C536.614 11.8427 540.625 8.68533 545.745 6.55199C550.865 4.41866 556.668 3.352 563.153 3.352C573.649 3.352 582.012 5.82666 588.241 10.776C594.556 15.64 597.926 22.5093 598.353 31.384H571.089C571.004 28.6533 570.15 26.6053 568.529 25.24C566.993 23.8747 564.988 23.192 562.513 23.192C560.636 23.192 559.1 23.7467 557.905 24.856C556.71 25.9653 556.113 27.544 556.113 29.592C556.113 31.2987 556.753 32.792 558.033 34.072C559.398 35.2667 561.062 36.3333 563.025 37.272C564.988 38.1253 567.889 39.2347 571.729 40.6C577.446 42.5627 582.14 44.5253 585.809 46.488C589.564 48.3653 592.764 51.0533 595.409 54.552C598.14 57.9653 599.505 62.3173 599.505 67.608C599.505 72.984 598.14 77.8053 595.409 82.072C592.764 86.3387 588.881 89.7093 583.761 92.184C578.726 94.6587 572.753 95.896 565.841 95.896Z" fill="white"/>
</g>
<defs>
<filter id="filter0_dd_1_70" x="0.783997" y="0.279999" width="602.721" height="163.616" filterUnits="userSpaceOnUse" color-interpolation-filters="sRGB">
<feFlood flood-opacity="0" result="BackgroundImageFix"/>
<feColorMatrix in="SourceAlpha" type="matrix" values="0 0 0 0 0 0 0 0 0 0 0 0 0 0 0 0 0 0 127 0" result="hardAlpha"/>
<feOffset dy="32"/>
<feGaussianBlur stdDeviation="2"/>
<feComposite in2="hardAlpha" operator="out"/>
<feColorMatrix type="matrix" values="0 0 0 0 0.666667 0 0 0 0 0.666667 0 0 0 0 0.666667 0 0 0 0.32 0"/>
<feBlend mode="normal" in2="BackgroundImageFix" result="effect1_dropShadow_1_70"/>
<feColorMatrix in="SourceAlpha" type="matrix" values="0 0 0 0 0 0 0 0 0 0 0 0 0 0 0 0 0 0 127 0" result="hardAlpha"/>
<feOffset dy="64"/>
<feGaussianBlur stdDeviation="2"/>
<feComposite in2="hardAlpha" operator="out"/>
<feColorMatrix type="matrix" values="0 0 0 0 0.666667 0 0 0 0 0.666667 0 0 0 0 0.666667 0 0 0 0.1 0"/>
<feBlend mode="normal" in2="effect1_dropShadow_1_70" result="effect2_dropShadow_1_70"/>
<feBlend mode="normal" in="SourceGraphic" in2="effect2_dropShadow_1_70" result="shape"/>
</filter>
</defs>
</svg>
